<svg xmlns="http://www.w3.org/2000/svg" viewBox="0 0 200 200" width="200" height="200" role="img" aria-label="Sornam Properties and Developers favicon - Vel Ayudham">
  <g transform="translate(0,10)">
    <!-- Blade -->
    <path d="M100 14
             C 140 56, 152 92, 130 120
             C 122 130, 112 136, 100 132
             C 88 136, 78 130, 70 120
             C 48 92, 60 56, 100 14 Z"
          fill="#F2B600" stroke="#111111" stroke-width="6" stroke-linejoin="round"/>
    <path d="M100 14
             C 60 56, 48 92, 70 120
             C 78 130, 88 136, 100 132 Z"
          fill="#FFD400"/>
    <line x1="100" y1="20" x2="100" y2="131" stroke="#111111" stroke-width="3"/>

    <!-- Tripundra + bindu -->
    <rect x="62" y="58" width="76" height="11" rx="5.5" fill="#FFFFFF" stroke="#111111" stroke-width="3"/>
    <rect x="62" y="71" width="76" height="11" rx="5.5" fill="#FFFFFF" stroke="#111111" stroke-width="3"/>
    <rect x="62" y="84" width="76" height="11" rx="5.5" fill="#FFFFFF" stroke="#111111" stroke-width="3"/>
    <circle cx="100" cy="84.5" r="9" fill="#E63B2E" stroke="#111111" stroke-width="3"/>

    <!-- Lotus collar -->
    <g fill="#FFD400" stroke="#111111" stroke-width="4" stroke-linejoin="round">
      <path d="M100 132 C 90 142, 88 154, 100 162 C 112 154, 110 142, 100 132 Z"/>
      <path d="M100 132 C 90 142, 88 154, 100 162 C 112 154, 110 142, 100 132 Z" transform="rotate(38 100 140)"/>
      <path d="M100 132 C 90 142, 88 154, 100 162 C 112 154, 110 142, 100 132 Z" transform="rotate(-38 100 140)"/>
      <path d="M100 132 C 92 140, 90 150, 100 156 C 110 150, 108 140, 100 132 Z" transform="rotate(70 100 138)"/>
      <path d="M100 132 C 92 140, 90 150, 100 156 C 110 150, 108 140, 100 132 Z" transform="rotate(-70 100 138)"/>
    </g>
  </g>
</svg>
